<?xml version="1.0" encoding="UTF-8"?>
<svg width="640" height="480" xmlns="http://www.w3.org/2000/svg" xmlns:svg="http://www.w3.org/2000/svg">
 <!-- Created with SVG-edit - http://svg-edit.googlecode.com/ -->
 <g>
  <title>Layer 1</title>
  <rect id="svg_17" height="434.666659" width="482.666681" y="30.666673" x="24.00002" stroke-linecap="null" stroke-linejoin="null" stroke-dasharray="null" stroke-width="5" stroke="#000000" fill="#bfbfbf"/>
  <rect id="svg_1" height="131" width="159" y="110" x="272" stroke-width="5" stroke="#000000" fill="#FF0000"/>
  <text transform="matrix(0.891903, 0, 0, 0.932128, 22.3076, 2.13729)" xml:space="preserve" text-anchor="middle" font-family="serif" font-size="24" id="svg_2" y="154.752342" x="366.847458" stroke-width="0" stroke="#000000" fill="#000000">edad=20</text>
  <text id="svg_3" transform="matrix(0.891903, 0, 0, 0.932128, 22.3076, 2.13729)" xml:space="preserve" text-anchor="middle" font-family="serif" font-size="24" y="201.180763" x="369.650517" stroke-width="0" stroke="#000000" fill="#000000">peso=70</text>
  <text xml:space="preserve" text-anchor="middle" font-family="serif" font-size="24" id="svg_4" y="83" x="80" stroke-linecap="null" stroke-linejoin="null" stroke-dasharray="null" stroke-width="0" stroke="#000000" fill="#000000">pepe</text>
  <path transform="rotate(18.2032, 197.37, 98.8646)" id="svg_5" d="m232.468048,105.806305c2.790131,-1.243912 5.457977,-2.677879 7.808914,-3.965195l-70.429459,-0.590714l-9.660629,5.086761l-30.604736,-0.436737c3.835373,-2.316093 8.036133,-5.036736 11.150482,-7.080231l-11.079941,-6.870125l32.654709,0l6.644852,4.292633l71.905182,0l-8.918549,-4.28273c2.752518,-1.349808 6.825882,-3.150986 9.036499,-4.095322l24.183441,10.91539l-24.23877,11.08461l-8.451996,-4.058342l0,0z" stroke-linecap="null" stroke-linejoin="null" stroke-dasharray="null" stroke-width="5" stroke="#000000" fill="#000000"/>
  <text id="svg_6" xml:space="preserve" text-anchor="middle" font-family="serif" font-size="24" y="276.5" x="90" stroke-linecap="null" stroke-linejoin="null" stroke-dasharray="null" stroke-width="0" stroke="#000000" fill="#000000">jose</text>
  <path id="svg_7" transform="rotate(-19.279, 193.086, 241.834)" d="m228.183334,248.775955c2.790131,-1.243912 5.457977,-2.677872 7.808914,-3.965195l-70.429459,-0.590714l-9.660629,5.086761l-30.604736,-0.436737c3.835373,-2.316086 8.036133,-5.036728 11.150482,-7.080231l-11.079941,-6.870132l32.654709,0l6.644852,4.292633l71.905182,0l-8.918549,-4.282715c2.752518,-1.349823 6.825882,-3.151001 9.036499,-4.095337l24.183426,10.915405l-24.238754,11.084595l-8.451996,-4.058334l0,0z" stroke-linecap="null" stroke-linejoin="null" stroke-dasharray="null" stroke-width="5" stroke="#000000" fill="#000000"/>
  <text id="svg_8" xml:space="preserve" text-anchor="middle" font-family="serif" font-size="24" y="342.666687" x="105.333355" stroke-linecap="null" stroke-linejoin="null" stroke-dasharray="null" stroke-width="0" stroke="#000000" fill="#000000">a</text>
  <rect id="svg_10" height="65.666666" width="87.000008" y="298.500006" x="271.166697" stroke-width="5" stroke="#000000" fill="#FF0000"/>
  <text xml:space="preserve" text-anchor="middle" font-family="serif" font-size="24" id="svg_11" y="338.666682" x="316.000029" stroke-linecap="null" stroke-linejoin="null" stroke-dasharray="null" stroke-width="0" stroke="#000000" fill="#000000">2</text>
  <path id="svg_12" transform="rotate(0.387843, 198.455, 337.879)" d="m233.552979,344.820343c2.790131,-1.243896 5.457977,-2.677856 7.808929,-3.965179l-70.429474,-0.590729l-9.660614,5.086792l-30.604736,-0.436768c3.835358,-2.316071 8.036133,-5.036713 11.150482,-7.0802l-11.079956,-6.870148l32.654724,0l6.644836,4.292633l71.905182,0l-8.918549,-4.282715c2.752533,-1.349823 6.825897,-3.151001 9.036499,-4.095337l24.183441,10.915405l-24.23877,11.084595l-8.451996,-4.05835l0,0z" stroke-linecap="null" stroke-linejoin="null" stroke-dasharray="null" stroke-width="5" stroke="#000000" fill="#000000"/>
  <text style="cursor: move;" id="svg_13" xml:space="preserve" text-anchor="middle" font-family="serif" font-size="24" y="436.66671" x="104.000027" stroke-linecap="null" stroke-linejoin="null" stroke-dasharray="null" stroke-width="0" stroke="#000000" fill="#000000">b</text>
  <rect id="svg_14" height="65.666666" width="87.000008" y="392.500029" x="269.833369" stroke-width="5" stroke="#000000" fill="#FF0000"/>
  <text id="svg_15" xml:space="preserve" text-anchor="middle" font-family="serif" font-size="24" y="432.666705" x="314.666701" stroke-linecap="null" stroke-linejoin="null" stroke-dasharray="null" stroke-width="0" stroke="#000000" fill="#000000">2</text>
  <path id="svg_16" transform="rotate(0.387843, 197.122, 431.879)" d="m232.219666,438.820374c2.7901,-1.243896 5.457947,-2.677856 7.808899,-3.965179l-70.429443,-0.590729l-9.660645,5.086792l-30.604736,-0.436768c3.835388,-2.316071 8.036133,-5.036713 11.150513,-7.0802l-11.079956,-6.870148l32.654724,0l6.644836,4.292633l71.905151,0l-8.918518,-4.282715c2.752502,-1.349823 6.825867,-3.151001 9.036499,-4.095337l24.183411,10.915405l-24.23877,11.084595l-8.451965,-4.05835l0,0z" stroke-linecap="null" stroke-linejoin="null" stroke-dasharray="null" stroke-width="5" stroke="#000000" fill="#000000"/>
  <text xml:space="preserve" text-anchor="middle" font-family="serif" font-size="24" id="svg_18" y="220.000012" x="554.666703" stroke-linecap="null" stroke-linejoin="null" stroke-dasharray="null" stroke-width="0" stroke="#000000" fill="#000000">RAM</text>
 </g>
</svg>